<svg xmlns="http://www.w3.org/2000/svg" width="512" height="512" viewBox="0 0 512 512" version="1.1"><path d="M 179.667 25.667 C 179.300 26.033, 179 37.733, 179 51.667 L 179 77 153.500 77 L 128 77 128 154 L 128 231 153.500 231 L 179 231 179 256.500 L 179 282 256.500 282 L 334 282 334 256.500 L 334 231 359.500 231 L 385 231 385 153.500 L 385 76 359.500 76 L 334 76 334 50.500 L 334 25 257.167 25 C 214.908 25, 180.033 25.300, 179.667 25.667 M 180 153.500 L 180 230 256.500 230 L 333 230 333 153.500 L 333 77 256.500 77 L 180 77 180 153.500 M 77 306.500 L 77 332 51.500 332 L 26 332 26 409.500 L 26 487 256.500 487 L 487 487 487 410 L 487 333 461.500 333 L 436 333 436 307 L 436 281 410 281 L 384 281 384 307 L 384 333 409.500 333 L 435 333 435 384 L 435 435 256.500 435 L 78 435 78 384 L 78 333 103.500 333 L 129 333 129 307 L 129 281 103 281 L 77 281 77 306.500" stroke="none" fill="#ffffff" fill-rule="evenodd"/><path d="M 179.667 25.667 C 179.300 26.033, 179 37.733, 179 51.667 L 179 77 153.500 77 L 128 77 128 154 L 128 231 153.500 231 L 179 231 179 256.500 L 179 282 256.500 282 L 334 282 334 256.500 L 334 231 359.500 231 L 385 231 385 153.500 L 385 76 359.500 76 L 334 76 334 50.500 L 334 25 257.167 25 C 214.908 25, 180.033 25.300, 179.667 25.667 M 180 153.500 L 180 230 256.500 230 L 333 230 333 153.500 L 333 77 256.500 77 L 180 77 180 153.500 M 77 306.500 L 77 332 51.500 332 L 26 332 26 409.500 L 26 487 256.500 487 L 487 487 487 410 L 487 333 461.500 333 L 436 333 436 307 L 436 281 410 281 L 384 281 384 307 L 384 333 409.500 333 L 435 333 435 384 L 435 435 256.500 435 L 78 435 78 384 L 78 333 103.500 333 L 129 333 129 307 L 129 281 103 281 L 77 281 77 306.500" stroke="none" fill="#ffffff" fill-rule="evenodd"/></svg>